<?xml version="1.0" encoding="iso-8859-1"?>
<!-- Generator: Adobe Illustrator 19.0.0, SVG Export Plug-In . SVG Version: 6.00 Build 0)  -->
<svg version="1.1" id="Layer_1" xmlns="http://www.w3.org/2000/svg" xmlns:xlink="http://www.w3.org/1999/xlink" x="0px" y="0px"
	 viewBox="0 0 332.74 332.74" style="enable-background:new 0 0 332.74 332.74;" xml:space="preserve">
<g>
	<g>
		<g>
			<path d="M316.385,208.702c-1.208-27.772-26.436-50.084-57.124-50.084c-5.968,0-11.724,0.912-17.196,2.48
				c-8.808-44.116-46.264-63.508-80-62.688c-33.388,0.624-69.716,21.224-76.388,65.716c-2.136-0.224-4.288-0.368-6.476-0.368
				c-33.188,0-60.448,26.56-61.54,59.544C3.029,233.926-3.471,253.066,1.829,270.47c3.448,11.332,11.208,20.504,21.792,25.792
				c0.428,0.232,10.668,5.568,22.464,4.444c13.488,0.248,60.632,1.068,96.172,1.064c21.488,0,38.74-0.3,41.72-1.208
				c10.956-3.336,19.952-10.732,25.344-20.84c5.384-10.1,6.516-21.696,3.18-32.652c-4.22-13.864-14.864-24.4-28.692-28.536
				c-0.204-0.96-0.424-1.836-0.68-2.672c-2.04-6.708-5.96-12.516-11.276-16.848c5.412-9.444,17.104-13.472,29.864-9.96
				c2.592,0.716,5.048,1.796,7.284,3.204c0.76,0.476,1.684,0.62,2.544,0.38c0.864-0.228,1.592-0.808,2.016-1.592
				c8.416-15.784,26.36-25.984,45.708-25.984c27.808,0,50.564,20.392,50.728,45.46c0.004,1.12,0.596,2.156,1.556,2.732
				c12.24,7.396,17.604,20.884,13.352,33.556c-2.66,7.932-8.688,14.368-17.032,18.152c-0.084,0.04-8.264,3.892-18.112,3.1
				c-0.296,0.004-30.108,0.728-66.584,0.804c-1.78,0.004-3.216,1.452-3.212,3.232c0.004,1.776,1.444,3.212,3.22,3.212h0.008
				c36.552-0.08,66.428-0.804,66.376-0.82c11.208,0.98,20.7-3.524,21.032-3.688c9.928-4.504,17.176-12.292,20.416-21.936
				C335.973,234.038,329.977,217.778,316.385,208.702z M176.961,217.742c0.344,1.12,0.612,2.348,0.856,3.872
				c0.2,1.28,1.152,2.308,2.404,2.616c12.592,3.128,22.356,12.368,26.116,24.716c2.836,9.312,1.872,19.164-2.704,27.752
				c-4.576,8.584-12.224,14.872-21.524,17.7c-5.88,1.616-86.48,0.784-136.268-0.124c-10.204,1.004-19.124-3.656-19.276-3.736
				c-9.048-4.528-15.648-12.32-18.576-21.944c-4.644-15.256,1.38-32.08,14.644-40.912c0.892-0.596,1.432-1.588,1.436-2.664
				c0.176-30.232,24.908-54.82,55.132-54.82c21.296,0,40.312,11.956,49.616,31.2c0.412,0.848,1.172,1.476,2.08,1.712
				c0.9,0.236,1.88,0.068,2.652-0.464c2.436-1.692,5.1-2.98,7.916-3.836c7.268-2.216,14.968-1.46,21.668,2.112
				C169.837,204.498,174.745,210.466,176.961,217.742z M209.505,185.166c-1.936-0.96-3.968-1.736-6.08-2.32
				c-15.3-4.208-29.972,0.996-36.916,12.6c-0.12-0.064-0.228-0.144-0.348-0.208c-8.228-4.376-17.664-5.308-26.576-2.588
				c-2.296,0.696-4.512,1.628-6.612,2.78c-8.768-15.82-23.66-26.704-40.936-30.336c6.116-40.792,39.476-59.676,70.148-60.248
				c31.264-0.492,65.96,17.276,73.752,58.332C224.949,167.65,215.637,175.218,209.505,185.166z"/>
			<path d="M164.365,54.026c1.78,0,3.22-1.444,3.22-3.22V34.19c0-1.78-1.44-3.22-3.22-3.22c-1.78,0-3.22,1.44-3.22,3.22v16.616
				C161.145,52.582,162.585,54.026,164.365,54.026z"/>
			<path d="M164.365,84.614c1.78,0,3.22-1.444,3.22-3.22V62.022c0-1.78-1.44-3.22-3.22-3.22c-1.78,0-3.22,1.44-3.22,3.22v19.372
				C161.145,83.17,162.585,84.614,164.365,84.614z"/>
			<path d="M72.509,88.838c0.632,0.632,1.452,0.944,2.28,0.944c0.824,0,1.648-0.312,2.276-0.944c1.26-1.256,1.26-3.292,0.004-4.552
				l-10.796-10.8c-1.256-1.26-3.296-1.26-4.552,0c-1.26,1.26-1.26,3.3,0,4.556L72.509,88.838z"/>
			<path d="M95.093,111.414c0.628,0.632,1.452,0.944,2.276,0.944c0.824,0,1.648-0.312,2.276-0.944c1.256-1.256,1.256-3.296,0-4.552
				L86.929,94.146c-1.26-1.26-3.3-1.26-4.556,0c-1.26,1.256-1.26,3.3,0,4.556L95.093,111.414z"/>
			<path d="M252.017,91.706c0.828,0,1.648-0.312,2.28-0.944l12.716-12.72c1.26-1.256,1.26-3.3,0-4.556c-1.256-1.26-3.3-1.26-4.556,0
				l-12.72,12.72c-1.256,1.256-1.256,3.3,0.004,4.556C250.369,91.39,251.193,91.706,252.017,91.706z"/>
			<path d="M231.361,112.358c0.824,0,1.648-0.312,2.276-0.944l10.796-10.796c1.26-1.256,1.26-3.296,0-4.552
				c-1.256-1.26-3.296-1.26-4.556,0l-10.796,10.792c-1.26,1.256-1.26,3.292-0.004,4.556
				C229.713,112.046,230.533,112.358,231.361,112.358z"/>
			<path d="M58.477,123.566l16.136,7.944c0.46,0.228,0.94,0.332,1.42,0.332c1.188,0,2.328-0.66,2.888-1.796
				c0.788-1.6,0.128-3.528-1.468-4.312l-16.136-7.944c-1.592-0.792-3.524-0.132-4.312,1.468
				C56.225,120.85,56.881,122.782,58.477,123.566z"/>
			<path d="M201.457,88.346c0.46,0.228,0.944,0.332,1.42,0.332c1.188,0,2.332-0.66,2.892-1.8l6.74-13.7
				c0.788-1.592,0.128-3.524-1.468-4.308c-1.584-0.792-3.524-0.128-4.312,1.468l-6.744,13.7
				C199.205,85.63,199.861,87.562,201.457,88.346z"/>
			<path d="M257.281,139.978l-13.316,4.152c-1.7,0.532-2.644,2.34-2.116,4.036c0.428,1.38,1.7,2.264,3.076,2.264
				c0.316,0,0.64-0.048,0.956-0.148l13.316-4.156c1.7-0.532,2.644-2.34,2.116-4.032
				C260.785,140.394,258.985,139.458,257.281,139.978z"/>
			<path d="M271.489,142.134c0.316,0,0.64-0.048,0.96-0.148l18.492-5.768c1.7-0.528,2.644-2.332,2.116-4.036
				c-0.528-1.7-2.336-2.636-4.036-2.116l-18.496,5.768c-1.696,0.528-2.644,2.336-2.116,4.032
				C268.845,141.254,270.117,142.134,271.489,142.134z"/>
			<path d="M123.177,85.962c0.428,1.38,1.7,2.264,3.076,2.264c0.316,0,0.64-0.048,0.96-0.148c1.696-0.532,2.644-2.336,2.116-4.036
				l-4.548-14.576c-0.532-1.7-2.332-2.636-4.036-2.116c-1.7,0.532-2.644,2.332-2.116,4.032L123.177,85.962z"/>
			<path d="M298.745,205.41c3.412-10.94-3.096-22.896-14.036-26.152c-2.808-0.836-4.008,3.548-1.208,4.384
				c8.632,2.568,13.524,12.016,10.86,20.56C293.489,206.998,297.873,208.194,298.745,205.41z"/>
			<path d="M159.829,283.766h15.624c2.924,0,2.928-4.544,0-4.544h-15.624C156.905,279.222,156.901,283.766,159.829,283.766z"/>
			<path d="M150.457,279.222h-37.492c-2.924,0-2.928,4.544,0,4.544h37.492C153.381,283.766,153.385,279.222,150.457,279.222z"/>
			<path d="M212.093,143.606c2.872,4.26,5.42,8.704,7.812,13.252c1.364,2.584,5.288,0.292,3.924-2.296
				c-2.392-4.544-4.94-8.992-7.812-13.252C214.389,138.898,210.449,141.17,212.093,143.606z"/>
			<path d="M190.681,122.23c-2.844-0.68-4.056,3.696-1.208,4.384c6.42,1.54,11.816,4.932,16.488,9.544
				c2.08,2.056,5.296-1.156,3.212-3.216C203.977,127.81,197.825,123.942,190.681,122.23z"/>
		</g>
	</g>
</g>
<g>
</g>
<g>
</g>
<g>
</g>
<g>
</g>
<g>
</g>
<g>
</g>
<g>
</g>
<g>
</g>
<g>
</g>
<g>
</g>
<g>
</g>
<g>
</g>
<g>
</g>
<g>
</g>
<g>
</g>
</svg>
