<svg width="177" height="220" viewBox="0 0 177 220" fill="none" xmlns="http://www.w3.org/2000/svg">
<path d="M20.0786 153.035C24.6784 159.275 33.0786 168.035 33.0786 168.035C33.0786 168.035 46.4558 150.218 59.0786 148.035C63.6964 147.237 66.4373 147.388 71.0786 148.035C77.1941 148.888 81.3904 157.054 86.0786 153.035C90.2297 149.477 88.615 143.879 86.0786 139.035C82.9987 133.154 71.0786 131.035 71.0786 131.035C71.0786 131.035 63.3564 126.699 59.0786 123.035C53.6094 118.351 52.6361 117.838 47.0786 113.259C43.8185 110.573 40.8655 106.21 38.0786 103.035C34.9654 99.4891 34.0306 96.6568 33.0786 92.0352C32.2119 87.8277 32.5142 85.2937 33.0786 81.0352C33.8899 74.9139 35.0452 71.4134 38.0786 66.0352C40.8053 61.2007 42.7219 58.474 47.0786 55.0352C51.1913 51.789 54.0905 50.6385 59.0786 49.0352C69.117 45.8085 75.5754 48.1074 86.0786 49.0352C98.3617 50.1201 104.754 54.6373 117.079 55.0352C141.044 55.8087 176.079 38.0352 176.079 38.0352C176.079 38.0352 164.079 28.0352 158.079 22.0352C152.079 16.0352 150.398 15.0271 145.079 11.0352C138.754 6.28868 134.843 4.63467 127.161 2.75894C113.744 -0.517273 101.279 0.0351562 94.0786 0.0351562C86.8786 0.0351562 69.1613 2.75894 69.1613 2.75894C69.1613 2.75894 45.1405 11.1352 33.0786 22.0352C27.1054 27.433 23.6473 29.9378 18.6613 36.2589C13.4855 42.8209 10.8157 47.5597 7.07861 55.0352C2.41905 64.3558 2.28615 70.6849 1.07861 81.0352C-0.188507 91.8962 -0.521088 98.2181 1.07861 109.035C2.38142 117.845 3.67374 122.806 7.07861 131.035C10.8941 140.256 14.157 145.003 20.0786 153.035Z" fill="#901A1F"/>
<path d="M156.161 66.7589C151.562 60.5194 143.161 51.7589 143.161 51.7589C143.161 51.7589 129.784 69.5763 117.161 71.7589C112.544 72.5574 109.803 72.4065 105.161 71.7589C99.0459 70.9056 94.8496 62.7404 90.1614 66.7589C86.0103 70.317 87.6249 75.9155 90.1614 80.7589C93.2413 86.6402 105.161 88.7589 105.161 88.7589C105.161 88.7589 112.884 93.0952 117.161 96.7589C122.631 101.443 123.604 101.956 129.161 106.535C132.422 109.221 135.374 113.585 138.161 116.759C141.275 120.305 142.209 123.137 143.161 127.759C144.028 131.966 143.726 134.5 143.161 138.759C142.35 144.88 141.195 148.381 138.161 153.759C135.435 158.593 133.518 161.32 129.161 164.759C125.049 168.005 122.149 169.156 117.161 170.759C107.123 173.986 100.665 171.687 90.1614 170.759C77.8783 169.674 71.4859 165.157 59.1614 164.759C35.1955 163.985 0.161377 181.759 0.161377 181.759C0.161377 181.759 12.1614 191.759 18.1614 197.759C24.1614 203.759 25.8423 204.767 31.1614 208.759C37.4859 213.505 41.3968 215.159 49.0786 217.035C62.4959 220.311 74.9614 219.759 82.1614 219.759C89.3614 219.759 107.079 217.035 107.079 217.035C107.079 217.035 131.099 208.659 143.161 197.759C149.135 192.361 152.593 189.856 157.579 183.535C162.755 176.973 165.424 172.234 169.161 164.759C173.821 155.438 173.954 149.109 175.161 138.759C176.428 127.898 176.761 121.576 175.161 110.759C173.859 101.949 172.566 96.9876 169.161 88.7589C165.346 79.5377 162.083 74.7915 156.161 66.7589Z" fill="#901A1F"/>
</svg>
