<?xml version="1.0" encoding="iso-8859-1"?>
<!-- Generator: Adobe Illustrator 18.0.0, SVG Export Plug-In . SVG Version: 6.00 Build 0)  -->
<!DOCTYPE svg PUBLIC "-//W3C//DTD SVG 1.1//EN" "http://www.w3.org/Graphics/SVG/1.1/DTD/svg11.dtd">
<svg version="1.1" id="Capa_1" xmlns="http://www.w3.org/2000/svg" xmlns:xlink="http://www.w3.org/1999/xlink" x="0px" y="0px"
	 viewBox="0 0 297 297" style="enable-background:new 0 0 297 297;" xml:space="preserve">
<path d="M198.159,201.979c28.131-3.175,42.561-25.016,48.175-41.214h20.628c16.563,0,30.038-13.475,30.038-30.038
	s-13.475-30.038-30.038-30.038c-1.362,0-2.722,0.094-4.069,0.279c-1.028-1.227-2.142-2.372-3.315-3.448
	c1.118-4.291,1.727-8.784,1.727-13.42c0-29.48-23.984-53.463-53.463-53.463c-4.92,0-9.835,0.691-14.565,2.029
	c-12.4-18.776-33.627-30.46-56.512-30.46c-22.886,0-44.113,11.684-56.513,30.46c-4.729-1.338-9.645-2.029-14.565-2.029
	c-29.48,0-53.463,23.984-53.463,53.463s23.984,53.463,53.463,53.463h53.341l-4.221,84.938H93.026
	c-12.819-1.728-18.754-7.703-21.504-12.845h9.23c14.863,0,26.956-12.092,26.956-26.955c0-14.863-12.093-26.956-26.956-26.956
	c-0.904,0-1.807,0.046-2.706,0.137c-6.049-6.805-14.831-10.897-24.192-10.897s-18.142,4.091-24.192,10.897
	c-0.9-0.091-1.803-0.137-2.707-0.137C12.093,155.744,0,167.837,0,182.7c0,14.863,12.093,26.955,26.956,26.955h21.613
	c3.205,12.96,14.561,30.996,42.457,34.399c0.435,0.053,0.873,0.079,1.31,0.079h21.396l-1.953,39.309
	c-0.148,2.958,0.925,5.847,2.967,7.993c2.042,2.145,4.874,3.36,7.836,3.36h41.644c2.961,0,5.792-1.214,7.834-3.358
	c2.042-2.144,3.115-5.032,2.97-7.989l-3.991-81.469H198.159z M21.633,182.7c0-2.936,2.387-5.323,5.323-5.323
	c0.851,0,1.664,0.195,2.417,0.581c2.622,1.343,5.681,1.558,8.465,0.596c2.785-0.963,5.058-3.021,6.29-5.698
	c1.745-3.79,5.564-6.239,9.727-6.239s7.98,2.449,9.725,6.238c1.233,2.677,3.504,4.735,6.289,5.699
	c2.783,0.962,5.842,0.747,8.466-0.596c0.753-0.386,1.565-0.581,2.417-0.581c2.935,0,5.323,2.387,5.323,5.323
	c0,2.934-2.387,5.322-5.323,5.322H26.956C24.021,188.022,21.633,185.635,21.633,182.7z M33.857,84.099
	c0-17.551,14.279-31.83,31.83-31.83c5.09,0,9.963,1.175,14.483,3.49c2.625,1.345,5.682,1.56,8.467,0.597s5.058-3.021,6.29-5.699
	c7.502-16.291,23.924-26.819,41.837-26.819c17.912,0,34.334,10.527,41.837,26.819c1.233,2.678,3.505,4.735,6.291,5.699
	c2.783,0.962,5.844,0.747,8.466-0.597c4.519-2.315,9.392-3.49,14.482-3.49c17.551,0,31.83,14.279,31.83,31.83
	c0,1.377-0.093,2.732-0.264,4.063c-1.476-0.184-2.971-0.288-4.482-0.288c-10.919,0-21.136,4.938-27.967,13.094
	c-1.348-0.186-2.708-0.28-4.07-0.28c-11.185,0-20.954,6.149-26.124,15.24H65.687C48.136,115.929,33.857,101.649,33.857,84.099z
	 M133.949,273.162l6.639-133.585h5.719l6.559,133.585H133.949z M195.734,180.303c-4.799,0.539-16.783,0.405-25.758,0.188
	l-2.108-42.929h5.777c3.104,13.279,15.033,23.203,29.244,23.203h19.924C218.466,169.065,210.35,178.653,195.734,180.303z
	 M266.962,139.132h-64.073c-4.634,0-8.405-3.77-8.405-8.405c0-4.635,3.771-8.405,8.405-8.405c1.344,0,2.628,0.31,3.819,0.919
	c2.625,1.344,5.682,1.561,8.467,0.597c2.785-0.963,5.058-3.022,6.29-5.699c2.415-5.244,7.697-8.631,13.461-8.631
	c5.762,0,11.046,3.388,13.461,8.632c1.233,2.677,3.506,4.735,6.291,5.698c2.786,0.963,5.846,0.748,8.468-0.598
	c1.188-0.609,2.472-0.918,3.815-0.918c4.635,0,8.405,3.77,8.405,8.405C275.367,135.362,271.597,139.132,266.962,139.132z"/>
<g>
</g>
<g>
</g>
<g>
</g>
<g>
</g>
<g>
</g>
<g>
</g>
<g>
</g>
<g>
</g>
<g>
</g>
<g>
</g>
<g>
</g>
<g>
</g>
<g>
</g>
<g>
</g>
<g>
</g>
</svg>
