<?xml version="1.0" encoding="iso-8859-1"?>
<!-- Generator: Adobe Illustrator 18.0.0, SVG Export Plug-In . SVG Version: 6.00 Build 0)  -->
<!DOCTYPE svg PUBLIC "-//W3C//DTD SVG 1.1//EN" "http://www.w3.org/Graphics/SVG/1.1/DTD/svg11.dtd">
<svg version="1.1" id="Capa_1" xmlns="http://www.w3.org/2000/svg" xmlns:xlink="http://www.w3.org/1999/xlink" x="0px" y="0px"
	 viewBox="0 0 455.167 455.167" style="enable-background:new 0 0 455.167 455.167;" xml:space="preserve">
<g>
	<path d="M448.442,158.283c-9.392-36.351-28.462-69.671-55.149-96.359c-26.69-26.691-60.014-45.762-96.369-55.151
		c-35.275-9.112-72.521-8.957-107.707,0.446c-3.845,1.028-7.124,3.541-9.115,6.987c-1.99,3.446-2.53,7.542-1.501,11.387
		l50.806,189.611c1.411,5.266,5.571,9.348,10.86,10.667c0.033,0.008,0.067,0.017,0.101,0.025l189.265,50.712
		c1.276,0.342,2.582,0.511,3.882,0.511c2.612,0,5.204-0.683,7.505-2.013c3.446-1.992,5.96-5.271,6.987-9.117
		C457.404,230.801,457.555,193.557,448.442,158.283z M422.293,243.584l-166.152-44.52L211.625,32.93
		c25.762-4.637,52.375-3.676,77.797,2.89c31.171,8.051,59.754,24.413,82.658,47.317c22.902,22.902,39.264,51.482,47.315,82.65
		C425.964,191.21,426.927,217.823,422.293,243.584z"/>
	<path d="M404.764,280.262L223.51,231.695L174.948,50.459c-2.144-7.997-10.362-12.747-18.355-10.611
		c-35.695,9.523-68.445,28.44-94.712,54.707C21.977,134.46,0,187.514,0,243.946c0,56.431,21.977,109.485,61.881,149.39
		c41.188,41.187,95.289,61.781,149.391,61.781s108.204-20.594,149.391-61.781c26.271-26.271,45.191-59.025,54.713-94.719
		C417.509,290.619,412.76,282.404,404.764,280.262z M83.094,115.768c18.977-18.977,41.886-33.479,66.917-42.463l44.523,166.165
		L72.929,361.074C12.608,289.93,15.99,182.873,83.094,115.768z M339.449,372.123c-67.106,67.105-174.162,70.487-245.307,10.164
		l121.612-121.612l166.165,44.523C372.936,330.231,358.43,353.142,339.449,372.123z"/>
</g>
<g>
</g>
<g>
</g>
<g>
</g>
<g>
</g>
<g>
</g>
<g>
</g>
<g>
</g>
<g>
</g>
<g>
</g>
<g>
</g>
<g>
</g>
<g>
</g>
<g>
</g>
<g>
</g>
<g>
</g>
</svg>
